# xmcd
#
# Track frame offsets:
#	225
#	17530
#	35009
#	56774
#	73339
#	89750
#	104958
#	121848
#	136473
#	151870
#	167744
#	189676
#
# Disc length: 2722 seconds
#
# Revision: 1
# Processed by: cddbd v1.5.2PL0 Copyright (c) Steve Scherf et al.
# Submitted via: audiograbber 1.83.01
#
DISCID=b20a9f0c
DTITLE=Diane Durrett - Chill
DYEAR=2003
DGENRE=Folk-Rock
TTITLE0=Hangin' On a Rainy Day
TTITLE1=Love Comes In Colors
TTITLE2=Circles
TTITLE3=Changes
TTITLE4=Out of the Box
TTITLE5=Somebody Else
TTITLE6=The Mirror
TTITLE7=The Gift
TTITLE8=Everybody Wins
TTITLE9=America Lives In Us
TTITLE10=Waiting in the Wings
TTITLE11=Whatever Makes Your Soul Sing
EXTD=
EXTT0=
EXTT1=
EXTT2=
EXTT3=
EXTT4=
EXTT5=
EXTT6=
EXTT7=
EXTT8=
EXTT9=
EXTT10=
EXTT11=
PLAYORDER=
